<?xml version="1.0" encoding="UTF-8"?>
<svg width="32" height="32" viewBox="0 0 32 32" fill="none" xmlns="http://www.w3.org/2000/svg">
  <rect width="32" height="32" rx="6" fill="#00A8E8"/>
  <path d="M26.7 15.5L21.7 13.5L16.7 4.5C16.5 4.2 16.3 4 16 4C15.7 4 15.5 4.2 15.3 4.5L10.3 13.5L5.3 15.5C5 15.6 4.8 15.9 4.8 16.2C4.8 16.5 5 16.8 5.3 16.9L10.3 18.9L15.3 27.9C15.5 28.2 15.7 28.4 16 28.4C16.3 28.4 16.5 28.2 16.7 27.9L21.7 18.9L26.7 16.9C27 16.8 27.2 16.5 27.2 16.2C27.2 15.9 27 15.6 26.7 15.5Z" fill="white"/>
</svg> 